# xmcd
#
# Track frame offsets:
# 150
# 28050
# 58463
# 81715
# 101829
# 148433
#
# Disc length: 2305 seconds
#
#
# Revision: 3
# Processed by: cddbd v1.5PL3 Copyright (c) Steve Scherf et al.
# Submitted via: FreeRIP 2.53 
#
DISCID=6308ff06
DTITLE=Various Blues Artists - The Perfect Blue Storm
DYEAR=1900
DGENRE=Blues
TTITLE0=Got a Mind to Give Up Living - Scott Holt
TTITLE1=Cruel Contradictions - Dick Heckstall-smith
TTITLE2=Evil - Savoy Brown
TTITLE3=Louisiana Woman - Rab McCullogh
TTITLE4=You Shook Me - Mick Taylor
TTITLE5=Rattlesnake Shake - Vince Converse/Innes Sibun
EXTD=
EXTT0=
EXTT1=
EXTT2=
EXTT3=
EXTT4=
EXTT5=
PLAYORDER=
